# xmcd
#
# Track frame offsets:
#	150
#	21115
#	39813
#	62120
#	77722
#	95558
#	111384
#	133951
#	148748
#	163473
#	179681
#	196608
#	213835
#
# Disc length: 3009 seconds
#
# Revision: 1
# Processed by: cddbd v1.5.1PL0 Copyright (c) Steve Scherf et al.
# Submitted via: dBpowerAMP V4.0
#
DISCID=bd0bbf0d
DTITLE=In Flames - Clayman
DYEAR=1900
DGENRE=Metal
TTITLE0=Bullet Ride
TTITLE1=Pinball Map
TTITLE2=Only For The Weak
TTITLE3=As The Future Repeats Today
TTITLE4=Square Nothing
TTITLE5=Clayman
TTITLE6=Satelites And Astronauts
TTITLE7=Brush The Dust Away
TTITLE8=Swim
TTITLE9=Suburan Me
TTITLE10=Another Day In Quicksand
TTITLE11=World Of Promises
TTITLE12=Strong And Smart
EXTD=
EXTT0=
EXTT1=
EXTT2=
EXTT3=
EXTT4=
EXTT5=
EXTT6=
EXTT7=
EXTT8=
EXTT9=
EXTT10=
EXTT11=
EXTT12=
PLAYORDER=
